<svg xmlns="http://www.w3.org/2000/svg" viewBox="0 0 32 40" x="0px" y="0px"><title>21- search- profile- friend- contact- user</title><circle cx="16" cy="9" r="7"/><path d="M14,22a7.91,7.91,0,0,1,1.77-5H13.33A7.34,7.34,0,0,0,6,24.33V29a1,1,0,0,0,1,1H22A8,8,0,0,1,14,22Z"/><path d="M26.89,25.47a6,6,0,1,0-1.41,1.41l2.82,2.82a1,1,0,0,0,1.41-1.41ZM22,26a4,4,0,1,1,4-4A4,4,0,0,1,22,26Z"/><text x="0" y="47" fill="#000000" font-size="5px" font-weight="bold" font-family="'Helvetica Neue', Helvetica, Arial-Unicode, Arial, Sans-serif">Created by Andi Nur Abdillah</text><text x="0" y="52" fill="#000000" font-size="5px" font-weight="bold" font-family="'Helvetica Neue', Helvetica, Arial-Unicode, Arial, Sans-serif">from the Noun Project</text></svg>